<svg width="99" height="73" viewBox="0 0 99 73" fill="none" xmlns="http://www.w3.org/2000/svg">
<path d="M37.792 51.552C37.792 58.08 36.16 63.296 32.896 67.2C29.632 71.04 24.864 72.96 18.592 72.96C12.64 72.96 6.72 71.392 0.832001 68.256V0.959999H6.592V31.68C9.408 29.056 12.096 27.168 14.656 26.016C17.28 24.864 19.936 24.288 22.624 24.288C27.552 24.288 31.296 26.176 33.856 29.952C36.48 33.664 37.792 38.944 37.792 45.792V51.552ZM21.472 29.76C19.424 29.76 17.28 30.272 15.04 31.296C12.864 32.256 10.048 34.336 6.592 37.536V64.992C10.56 66.784 14.464 67.68 18.304 67.68C23.104 67.68 26.528 66.24 28.576 63.36C30.688 60.48 31.744 56.544 31.744 51.552V45.792C31.744 40.288 30.912 36.256 29.248 33.696C27.584 31.072 24.992 29.76 21.472 29.76ZM56.6898 72H49.7778V64.992H56.6898V72ZM98.7078 70.368C97.0438 71.136 95.1238 71.744 92.9478 72.192C90.7718 72.704 88.5638 72.96 86.3238 72.96C82.6118 72.96 79.6358 72.192 77.3958 70.656C75.1558 69.12 73.5238 66.976 72.4998 64.224C71.5398 61.472 71.0598 58.336 71.0598 54.816V32.928H63.1878V23.328H71.0598V10.656H82.0998V23.328H97.2678V32.928H82.0998V54.816C82.0998 57.76 82.6438 59.808 83.7318 60.96C84.8838 62.048 86.5158 62.592 88.6278 62.592C89.6518 62.592 90.7398 62.496 91.8918 62.304C93.1078 62.048 94.4518 61.632 95.9238 61.056L98.7078 70.368Z" fill="white"/>
</svg>
